<?xml version="1.0" standalone="no"?>
<!DOCTYPE svg PUBLIC "-//W3C//DTD SVG 1.1//EN" "http://www.w3.org/Graphics/SVG/1.1/DTD/svg11.dtd">
<svg width="2000mm" height="1998mm" viewBox="-1000 -999 2000 1998" xmlns="http://www.w3.org/2000/svg" version="1.1">
<title>Logo Background</title>
<path d="
M 1000,-0 L 992.115,-125.333 L 968.583,-248.69 L 929.776,-368.125 L 876.307,-481.754 L 809.017,-587.785
 L 728.969,-684.547 L 637.424,-770.513 L 535.827,-844.328 L 425.779,-904.827 L 309.017,-951.057 L 187.381,-982.287
 L 62.7905,-998.027 L -62.7905,-998.027 L -187.381,-982.287 L -309.017,-951.057 L -425.779,-904.827 L -535.827,-844.328
 L -637.424,-770.513 L -728.969,-684.547 L -809.017,-587.785 L -876.307,-481.754 L -929.776,-368.125 L -968.583,-248.69
 L -992.115,-125.333 L -1000,0 L -992.115,125.333 L -968.583,248.69 L -929.776,368.125 L -876.307,481.754
 L -809.017,587.785 L -728.969,684.547 L -637.424,770.513 L -535.827,844.328 L -425.779,904.827 L -309.017,951.057
 L -187.381,982.287 L -62.7905,998.027 L 62.7905,998.027 L 187.381,982.287 L 309.017,951.057 L 425.779,904.827
 L 535.827,844.328 L 637.424,770.513 L 728.969,684.547 L 809.017,587.785 L 876.307,481.754 L 929.776,368.125
 L 968.583,248.69 L 992.115,125.333 z
" stroke="#792359" fill="#792359" stroke-width="0.0"/>
</svg>
