<?xml version="1.0" standalone="no"?>
<!DOCTYPE svg PUBLIC "-//W3C//DTD SVG 1.1//EN" "http://www.w3.org/Graphics/SVG/1.1/DTD/svg11.dtd">
<svg width="1579mm" height="1148mm" viewBox="-824 -568 1579 1148" xmlns="http://www.w3.org/2000/svg" version="1.1">
<title>Logo Foreground</title>
<path d="
M -768.263,270.417 L -762.961,270.243 L -761.473,270.099 L -759.821,269.851 L -758.033,269.504 L -757.117,269.293
 L -757.096,269.295 L -754.185,268.622 L 125.968,63.8529 L 125.984,63.844 L 126.551,63.7121 L 127.749,63.3915
 L 128.977,63.0232 L 130.214,62.6128 L 131.441,62.1668 L 132.64,61.6924 L 133.79,61.197 L 134.874,60.6883
 L 137.743,59.3064 L 139.393,58.459 L 140.88,57.6164 L 142.179,56.7919 L 143.272,55.9986 L 147.824,52.592
 L 149.019,51.559 L 690.169,-470.439 L 694.464,-474.782 L 695.555,-475.986 L 699.406,-481.14 L 700.192,-482.436
 L 703.425,-488.26 L 705.865,-494.456 L 707.473,-500.926 L 707.833,-502.49 L 708.605,-509.227 L 708.503,-516.005
 L 707.527,-522.717 L 707.111,-524.215 L 705.274,-530.767 L 702.614,-537.02 L 699.173,-542.875 L 695.006,-548.241
 L 690.178,-553.032 L 689.091,-554.094 L 683.762,-558.153 L 677.95,-561.482 L 676.46,-562.133 L 670.443,-564.597
 L 664.153,-566.229 L 662.645,-566.53 L 656.49,-567.241 L 654.983,-567.335 L 653.189,-567.282 L 647.887,-567.109
 L 646.399,-566.965 L 644.747,-566.717 L 642.959,-566.37 L 642.043,-566.159 L 642.022,-566.16 L 639.111,-565.488
 L -241.042,-360.718 L -241.058,-360.709 L -241.625,-360.578 L -242.823,-360.257 L -244.051,-359.889 L -245.288,-359.478
 L -246.515,-359.032 L -247.714,-358.558 L -248.864,-358.062 L -249.948,-357.554 L -252.817,-356.172 L -254.467,-355.325
 L -255.954,-354.482 L -257.253,-353.657 L -258.346,-352.864 L -262.898,-349.458 L -264.093,-348.424 L -805.243,173.574
 L -809.538,177.916 L -810.63,179.12 L -814.48,184.275 L -815.266,185.57 L -818.499,191.395 L -820.939,197.591
 L -822.547,204.06 L -822.907,205.625 L -823.679,212.362 L -823.577,219.14 L -822.601,225.851 L -822.186,227.35
 L -820.348,233.901 L -817.688,240.154 L -814.247,246.01 L -810.08,251.375 L -805.252,256.167 L -804.165,257.228
 L -798.836,261.288 L -793.024,264.617 L -791.534,265.268 L -785.517,267.732 L -779.227,269.363 L -777.719,269.664
 L -771.564,270.376 L -770.057,270.47 z
M 160.185,579.905 L 162.73,579.671 L 166.588,579.254 L 169.536,578.76 L 172.183,578.075 L 176.966,576.569
 L 179.706,575.537 L 184.583,573.061 L 187.201,571.654 L 191.945,568.256 L 194.232,566.465 L 198.629,562.227
 L 739.779,40.2291 L 741.547,38.0731 L 745.411,33.1073 L 748.545,27.6576 L 749.685,25.0726 L 752.066,19.1623
 L 753.613,12.988 L 753.93,10.1526 L 754.614,3.83413 L 754.423,-2.50648 L 753.359,-8.76926 L 752.85,-11.5189
 L 750.96,-17.447 L 749.73,-20.1043 L 747.116,-25.5149 L 743.746,-30.4848 L 742.115,-32.7153 L 738.245,-36.8861
 L 736.309,-38.8232 L 733.895,-40.7164 L 730.101,-43.6567 L 727.702,-45.1861 L 724.97,-46.6296 L 721.741,-48.2325
 L 719.34,-49.2929 L 716.748,-50.2501 L 715.46,-50.6439 L 715.392,-50.6853 L 414.423,-142.701 L 179.875,83.5469
 L 178.078,85.1879 L 176.882,86.2209 L 174.453,88.1756 L 169.901,91.5822 L 169.391,91.9584 L 168.298,92.7518
 L 165.987,94.3217 L 164.688,95.1462 L 162.795,96.282 L 161.308,97.1246 L 159.697,97.9944 L 158.047,98.8418
 L 157.027,99.3494 L 154.157,100.731 L 153.755,100.922 L 152.671,101.431 L 151.374,102.015 L 150.224,102.51
 L 149.001,103.016 L 147.803,103.49 L 146.618,103.94 L 145.39,104.386 L 144.207,104.797 L 142.969,105.207
 L 141.751,105.592 L 140.523,105.961 L 139.233,106.327 L 138.034,106.647 L 136.621,107.001 L 136.117,107.118
 L 136.039,107.141 L -734.492,309.672 L 141.661,577.539 L 141.749,577.545 L 143.049,577.943 L 145.901,578.65
 L 148.816,579.215 L 151.747,579.628 L 154.65,579.883 L 157.477,579.976 z
" stroke="#d72483" fill="#d72483" stroke-width="0.0"/>
</svg>
